 <svg  version="1.0" xmlns="http://www.w3.org/2000/svg"  width="300.000000pt" height="300.000000pt" viewBox="0 0 300.000000 300.000000"  preserveAspectRatio="xMidYMid meet">  <g transform="translate(0.000000,300.000000) scale(0.100000,-0.100000)" fill="#3ec1b1" stroke="none"> <path d="M90 2992 c-22 -7 -30 -23 -30 -64 0 -27 6 -41 22 -52 42 -30 80 23 64 89 -6 24 -30 35 -56 27z m33 -38 c6 -34 -2 -64 -18 -64 -17 0 -26 37 -15 66 12 31 26 31 33 -2z"/> <path d="M350 2992 c-22 -7 -30 -23 -30 -63 0 -23 7 -42 20 -54 18 -17 21 -17 45 -1 19 13 25 25 25 54 0 52 -23 76 -60 64z m30 -38 c10 -26 -1 -64 -20 -64 -15 0 -23 60 -10 75 17 20 19 19 30 -11z"/> <path d="M596 2984 c-34 -33 -10 -124 32 -124 23 0 45 49 39 87 -9 52 -40 68 -71 37z m46 -53 c1 -37 -5 -46 -27 -38 -18 8 -20 58 -3 75 16 16 29 1 30 -37z"/> <path d="M545 2606 c-16 -7 -92 -77 -167 -154 l-138 -140 0 -48 0 -48 358 -358 357 -358 -357 -358 -358 -357 0 -49 0 -48 136 -138 c142 -145 186 -176 232 -165 19 4 193 171 562 540 529 529 535 535 535 575 0 39 -7 47 -210 252 -116 117 -356 358 -535 535 -345 342 -352 348 -415 319z m77 -17 c41 -22 620 -608 612 -620 -4 -8 -3 -9 4 -5 7 4 29 -11 53 -35 l41 -42 -178 -178 c-99 -99 -183 -179 -188 -179 -15 0 -76 62 -76 78 0 7 -4 11 -8 8 -5 -3 -147 133 -315 303 -295 295 -307 309 -307 345 0 35 9 48 118 158 120 124 184 178 209 178 8 0 24 -5 35 -11z m758 -747 c22 -22 40 -44 40 -50 0 -7 7 -12 15 -12 9 0 20 -11 27 -25 6 -13 15 -22 19 -19 5 3 9 -2 9 -10 0 -9 4 -16 9 -16 13 0 91 -79 91 -92 0 -6 3 -8 7 -5 7 7 68 -54 84 -85 7 -13 6 -18 -3 -18 -10 0 -10 -2 1 -9 10 -7 11 -13 1 -31 -16 -29 -1031 -1045 -1060 -1060 -12 -7 -32 -9 -44 -6 -13 3 -89 71 -169 150 -137 135 -147 147 -147 182 0 35 15 52 355 392 195 196 355 363 355 371 0 12 356 381 367 381 1 0 20 -17 43 -38z"/> <path d="M1184 1918 l-29 -33 33 29 c17 17 32 31 32 33 0 8 -8 1 -36 -29z"/> <path d="M1099 1833 c-13 -16 -12 -17 4 -4 9 7 17 15 17 17 0 8 -8 3 -21 -13z"/> <path d="M1059 1793 c-13 -16 -12 -17 4 -4 9 7 17 15 17 17 0 8 -8 3 -21 -13z"/> <path d="M999 1733 c-13 -16 -12 -17 4 -4 9 7 17 15 17 17 0 8 -8 3 -21 -13z"/> <path d="M1605 2609 c-11 -6 -82 -73 -158 -148 -145 -144 -166 -176 -147 -227 6 -16 167 -185 363 -381 l352 -353 -352 -352 c-196 -197 -357 -366 -363 -382 -19 -52 2 -84 153 -233 153 -151 180 -168 234 -139 15 8 263 250 551 538 l522 523 0 45 0 45 -533 533 c-463 464 -537 533 -567 537 -19 3 -44 0 -55 -6z m76 -20 c27 -14 187 -177 181 -184 -3 -3 -1 -5 5 -5 14 0 252 -238 245 -245 -3 -3 -1 -5 5 -5 6 0 50 -39 98 -86 l87 -86 -29 -30 -28 -31 32 23 33 24 27 -25 c16 -13 29 -27 31 -30 1 -3 86 -88 187 -190 170 -169 185 -186 185 -219 0 -33 -30 -65 -527 -562 -509 -509 -529 -528 -565 -528 -30 0 -46 8 -75 37 -21 20 -37 41 -35 45 1 5 -1 7 -6 4 -4 -3 -54 42 -110 99 -152 156 -174 107 240 522 188 188 345 340 348 338 4 -2 7 1 7 8 0 7 4 20 8 29 5 13 -4 29 -34 58 -23 23 -41 47 -41 54 0 7 21 33 48 58 26 25 58 58 72 74 13 16 -13 -7 -58 -51 l-82 -80 -37 40 c-21 22 -36 43 -35 48 1 4 -3 7 -9 7 -14 0 -399 389 -399 403 0 6 -2 8 -5 5 -4 -3 -33 21 -66 54 -44 43 -59 65 -56 79 3 10 1 17 -4 13 -12 -7 -11 8 1 41 5 14 15 23 20 20 6 -4 9 -3 8 2 -2 4 5 19 15 33 9 13 17 21 17 17 0 -4 9 1 19 10 11 9 18 20 15 24 -2 4 5 10 16 14 11 3 20 10 20 14 0 12 89 99 95 93 3 -3 5 2 5 11 0 10 6 16 13 15 6 -2 11 2 10 8 -2 12 52 43 75 44 7 0 22 -5 33 -11z"/> <path d="M2165 1838 l-70 -73 73 70 c67 64 77 75 69 75 -1 0 -34 -33 -72 -72z"/> <path d="M2344 115 c-28 -43 -7 -114 33 -115 41 0 60 92 25 123 -25 23 -39 21 -58 -8z m46 -44 c0 -22 -4 -42 -8 -45 -16 -10 -29 10 -27 39 3 43 4 45 20 45 11 0 15 -11 15 -39z"/> <path d="M2612 124 c-23 -16 -31 -75 -13 -103 11 -18 61 -18 72 0 16 25 10 85 -9 102 -23 21 -22 21 -50 1z m33 -28 c15 -15 16 -57 1 -68 -18 -12 -33 3 -34 34 -1 48 9 59 33 34z"/> <path d="M2872 124 c-16 -11 -22 -25 -22 -52 0 -48 12 -64 45 -65 35 0 46 18 43 67 -4 51 -33 73 -66 50z m36 -31 c9 -19 2 -65 -10 -64 -5 1 -12 1 -16 1 -5 0 -9 14 -10 30 0 20 3 28 10 24 7 -5 9 -1 5 9 -8 23 10 22 21 0z"/> </g> </svg> 