<?xml version="1.0" standalone="no"?>
<!DOCTYPE svg PUBLIC "-//W3C//DTD SVG 20010904//EN"
 "http://www.w3.org/TR/2001/REC-SVG-20010904/DTD/svg10.dtd">
<svg version="1.0" xmlns="http://www.w3.org/2000/svg"
 width="300.000000pt" height="300.000000pt" viewBox="0 0 300.000000 300.000000"
 preserveAspectRatio="xMidYMid meet">
<metadata>
Created by potrace 1.10, written by Peter Selinger 2001-2011
</metadata>
<g transform="translate(0.000000,300.000000) scale(0.100000,-0.100000)"
fill="#000000" stroke="none">
<path d="M1505 2949 c-192 -14 -313 -82 -366 -207 -22 -50 -23 -92 -5 -177 12
-58 12 -60 -10 -78 -13 -10 -29 -35 -35 -56 -23 -78 39 -150 127 -147 41 1 45
-1 55 -32 6 -17 33 -56 60 -86 27 -30 49 -58 49 -64 0 -5 -19 -13 -42 -17 -24
-5 -45 -9 -48 -10 -3 -1 -18 -5 -35 -9 -58 -16 -152 -67 -190 -104 -54 -53
-74 -103 -72 -179 l2 -64 -189 1 c-172 1 -192 0 -215 -18 -39 -29 -51 -60 -51
-135 0 -115 41 -167 132 -167 28 0 38 -7 66 -48 36 -54 39 -67 15 -81 -12 -6
-26 -3 -52 15 -20 13 -39 24 -43 24 -5 0 -35 -26 -68 -57 -65 -63 -72 -85 -39
-126 26 -34 13 -62 -32 -71 -53 -10 -59 -21 -59 -107 0 -87 9 -103 63 -113 42
-8 52 -33 26 -67 -10 -13 -19 -33 -19 -44 0 -23 107 -135 129 -135 7 0 26 9
42 21 39 27 65 18 73 -26 11 -55 28 -65 111 -65 71 0 102 12 106 41 1 5 3 14
4 19 1 6 3 16 4 24 2 23 42 27 72 5 15 -10 33 -19 41 -19 8 0 36 22 63 50 26
27 52 47 57 44 15 -10 8 -54 -16 -102 -93 -184 -20 -404 162 -494 62 -31 74
-33 167 -33 89 0 106 3 151 27 196 103 264 312 165 506 -12 23 -21 51 -21 62
0 24 -19 -4 377 531 72 97 137 186 144 197 10 16 24 22 47 22 19 0 50 8 69 17
50 23 66 67 61 166 -3 74 -5 80 -36 108 l-32 29 -193 0 -192 0 3 57 c7 128
-78 226 -244 283 -32 11 -61 21 -64 20 -3 0 -19 3 -37 6 -38 7 -36 18 17 85
20 26 42 60 49 78 12 28 18 31 55 31 112 0 171 115 100 199 -20 24 -22 33 -14
62 16 55 12 114 -9 140 -17 22 -18 27 -5 58 46 110 -26 194 -178 206 -125 11
-154 11 -253 4z m343 -49 c29 -12 57 -31 62 -41 12 -21 12 -106 1 -134 -6 -14
-2 -32 13 -57 19 -33 19 -41 9 -104 -11 -63 -10 -70 7 -89 31 -33 39 -66 26
-105 -13 -40 -63 -69 -112 -65 -28 2 -35 -3 -64 -52 -18 -29 -46 -68 -61 -86
-21 -22 -28 -41 -27 -61 3 -28 7 -31 93 -56 110 -32 149 -50 197 -93 51 -46
68 -85 68 -161 0 -94 4 -96 211 -95 173 1 206 -5 233 -43 24 -34 22 -153 -4
-195 -11 -18 -23 -34 -27 -34 -5 -1 -21 -3 -38 -4 -51 -3 -85 -15 -85 -29 0
-8 -4 -16 -8 -18 -5 -1 -27 -30 -49 -63 -22 -33 -50 -69 -62 -79 -11 -11 -21
-25 -21 -32 0 -7 -3 -14 -8 -16 -4 -1 -29 -33 -55 -70 -26 -36 -53 -72 -60
-80 -7 -7 -33 -42 -58 -77 -97 -139 -109 -155 -109 -146 0 6 -7 -4 -16 -21 -8
-18 -24 -41 -34 -51 -29 -32 -51 -81 -46 -105 2 -13 16 -49 31 -80 33 -72 42
-149 25 -219 -19 -78 -72 -165 -93 -152 -5 3 -7 1 -4 -5 10 -14 -48 -60 -113
-90 -73 -34 -174 -35 -254 -3 -31 13 -56 27 -56 32 0 5 -6 9 -13 9 -19 0 -69
55 -60 65 5 4 3 5 -4 1 -16 -9 -35 27 -27 51 5 15 4 15 -5 3 -8 -12 -15 -5
-33 35 -36 78 -32 190 10 279 38 80 40 109 10 130 -20 14 -23 14 -36 -5 -8
-11 -20 -18 -28 -15 -8 3 -11 0 -8 -8 3 -7 -4 -21 -16 -31 -11 -10 -20 -14
-20 -9 0 5 -4 3 -9 -4 -6 -11 -15 -10 -43 4 -51 24 -83 13 -99 -33 -15 -49
-22 -53 -94 -53 -72 0 -85 7 -94 51 -9 46 -49 61 -93 36 -21 -12 -34 -14 -43
-7 -6 5 -16 6 -20 2 -5 -4 -5 1 -2 11 4 11 3 16 -3 12 -11 -7 -80 61 -80 79 0
7 7 21 15 32 18 24 19 68 3 81 -7 6 -29 15 -48 22 l-35 11 0 77 0 78 31 10
c62 20 81 59 49 101 -23 30 -18 45 32 96 51 52 66 56 110 32 22 -12 34 -14 56
-5 35 14 35 41 -2 95 -39 57 -52 66 -97 70 -22 2 -45 4 -52 5 -27 3 -52 64
-52 131 0 130 19 141 252 141 95 0 179 3 186 8 8 4 14 34 16 77 3 77 20 118
68 164 42 40 156 94 234 110 98 20 105 36 43 101 -23 24 -51 63 -61 87 -21 47
-22 48 -90 57 -26 3 -53 13 -60 20 -33 37 -38 46 -38 76 0 19 10 46 26 66 28
37 28 38 18 134 -10 102 1 150 44 196 54 59 90 79 183 108 78 23 96 25 249 22
147 -3 171 -6 218 -27z"/>
<path d="M1539 2896 c-2 -2 -29 -6 -59 -9 -112 -11 -190 -47 -250 -114 -27
-31 -40 -55 -42 -81 -4 -49 9 -138 26 -169 l12 -25 27 35 c15 19 48 45 74 58
43 21 61 24 183 23 74 -1 168 -4 209 -8 65 -7 78 -11 102 -37 31 -33 47 -25
22 10 -32 47 -89 56 -338 56 -128 -1 -144 -3 -190 -25 -27 -14 -59 -39 -71
-57 l-21 -32 -7 52 c-14 116 -9 144 31 188 73 80 165 108 363 108 144 0 214
-11 241 -38 15 -14 16 -21 3 -66 -19 -70 -17 -99 7 -120 17 -16 19 -27 14 -64
-3 -24 -8 -48 -11 -53 -3 -4 -2 -8 1 -8 10 0 35 67 35 93 0 13 -10 34 -22 47
-20 21 -20 26 -9 64 24 82 23 96 -9 126 -36 34 -53 37 -193 39 -61 1 -114 4
-117 6 -4 3 -9 3 -11 1z"/>
<path d="M1377 2567 c-86 -25 -104 -57 -87 -162 37 -233 217 -345 378 -235 76
52 131 182 132 311 0 62 -13 81 -58 84 -168 13 -322 14 -365 2z m342 -23 l63
-7 -5 -76 c-13 -197 -110 -318 -250 -309 -109 8 -193 105 -217 250 -17 108
-10 118 100 151 20 6 229 0 309 -9z"/>
<path d="M1179 2447 c-36 -19 -34 -76 3 -97 46 -25 78 8 64 66 -9 33 -36 46
-67 31z m41 -9 c13 -81 14 -77 -17 -69 -31 8 -41 34 -23 56 10 13 39 21 40 13z"/>
<path d="M1852 2446 c-19 -23 -22 -75 -6 -91 19 -19 34 -19 62 1 24 17 30 65
10 81 -21 17 -57 22 -66 9z m44 -14 c17 -12 24 -40 11 -50 -7 -5 -23 -12 -35
-15 -21 -5 -23 -3 -18 16 3 12 6 30 6 40 0 18 17 22 36 9z"/>
<path d="M1453 2073 c-6 -15 23 -63 37 -63 6 0 10 -7 10 -16 0 -8 4 -13 9 -9
5 3 12 1 16 -5 13 -22 45 -8 84 36 23 26 41 53 41 59 0 19 -190 16 -197 -2z
m68 -8 c15 -4 45 -1 69 5 23 6 43 10 45 8 2 -2 -17 -25 -42 -52 l-46 -48 -44
47 c-48 53 -51 59 -25 51 9 -3 29 -8 43 -11z"/>
<path d="M1384 2016 c-6 -17 22 -124 38 -143 14 -17 23 -16 42 3 9 8 19 13 24
10 4 -2 9 7 10 22 1 19 -10 41 -39 75 -41 48 -65 58 -75 33z m65 -50 l44 -45
-29 -24 -29 -25 -17 58 c-9 32 -19 64 -23 69 -15 26 14 7 54 -33z"/>
<path d="M1649 1996 c-15 -12 -34 -35 -44 -50 -17 -25 -17 -27 1 -49 24 -28
36 -37 52 -37 16 0 49 75 54 121 2 28 -1 34 -17 36 -11 2 -32 -8 -46 -21z m47
-8 c-4 -13 -12 -44 -19 -69 l-12 -47 -28 24 -28 24 38 45 c42 49 58 57 49 23z"/>
<path d="M1224 1987 c-126 -54 -164 -102 -164 -206 0 -49 4 -62 19 -70 25 -14
897 -14 923 0 15 8 18 22 18 76 0 105 -43 154 -176 204 -55 21 -57 21 -73 3
-10 -11 -28 -57 -41 -104 -23 -84 -35 -110 -51 -110 -4 0 -14 6 -21 13 -52 48
-99 87 -107 87 -5 0 -37 -22 -71 -49 -34 -28 -67 -48 -73 -45 -7 3 -28 53 -47
112 -40 123 -47 127 -136 89z m121 -100 c16 -54 34 -105 40 -114 18 -24 53
-10 110 45 l50 48 61 -53 c34 -29 68 -53 77 -53 24 0 43 34 67 120 32 111 32
110 42 110 19 0 114 -44 146 -67 45 -34 62 -72 62 -143 l0 -60 -460 0 -460 0
0 60 c0 70 17 109 61 141 41 29 162 80 170 71 3 -4 19 -51 34 -105z"/>
<path d="M626 1647 c-14 -10 -16 -25 -14 -87 3 -67 5 -76 27 -86 38 -19 1792
-14 1814 5 21 17 24 150 5 169 -18 18 -1807 17 -1832 -1z m1820 -18 c8 -14 8
-124 0 -138 -8 -12 -1770 -17 -1800 -5 -12 5 -16 21 -16 73 0 37 3 71 7 74 12
12 1801 8 1809 -4z"/>
<path d="M833 1422 c-67 -7 -44 -66 27 -68 22 -1 55 -2 74 -3 31 -1 35 -5 43
-38 6 -25 18 -43 35 -53 25 -13 30 -13 57 3 32 19 66 23 56 7 -4 -6 -1 -9 7
-8 7 2 12 -3 10 -10 -1 -8 2 -11 7 -8 5 3 23 -10 40 -30 32 -36 34 -60 9 -91
-21 -26 1 -63 47 -83 l45 -19 0 -75 0 -74 -40 -16 c-46 -18 -47 -22 -20 -56
11 -14 20 -29 20 -33 0 -5 15 -24 34 -44 l33 -36 66 33 c112 55 237 51 343
-12 17 -10 38 -16 45 -13 8 3 39 42 69 85 30 44 61 79 68 80 7 0 10 5 7 10 -3
6 -1 10 4 10 6 0 11 5 11 11 0 20 132 189 143 182 6 -3 7 -1 3 5 -4 6 0 19 8
29 9 10 38 51 66 91 28 39 55 72 61 72 6 0 8 4 5 9 -3 5 5 20 19 32 34 32 61
87 48 100 -9 9 -1366 19 -1450 11z m1418 -59 c-17 -21 -94 -123 -171 -228 -77
-104 -146 -197 -153 -205 -7 -8 -43 -58 -81 -110 -38 -52 -72 -99 -76 -103 -3
-4 -38 7 -76 25 -61 29 -79 33 -154 33 -77 0 -92 -3 -154 -34 -37 -18 -71 -29
-75 -25 -19 23 -81 112 -81 118 0 3 9 6 21 6 51 0 59 15 59 105 0 75 -2 85
-22 99 -12 9 -33 16 -45 16 -35 0 -45 31 -22 66 30 46 24 66 -40 127 -33 32
-63 57 -68 57 -5 0 -24 -11 -44 -24 -41 -28 -62 -19 -73 31 -10 45 -23 52
-106 55 -47 2 -75 7 -78 15 -3 10 150 13 730 15 403 2 735 2 737 1 2 -1 -11
-19 -28 -40z"/>
<path d="M878 1333 c7 -3 16 -2 19 1 4 3 -2 6 -13 5 -11 0 -14 -3 -6 -6z"/>
<path d="M853 1304 c-7 -3 -17 -21 -23 -40 -8 -24 -17 -34 -27 -30 -8 3 -11 2
-8 -4 3 -5 -12 -14 -33 -21 -32 -9 -44 -8 -70 5 -20 10 -33 12 -37 6 -4 -6
-11 -7 -17 -4 -6 4 -8 2 -5 -3 4 -6 0 -13 -8 -17 -17 -6 -20 -51 -5 -61 14 -9
12 -47 -4 -86 -10 -25 -25 -38 -51 -48 -34 -12 -36 -15 -33 -54 3 -38 6 -43
35 -51 24 -8 35 -19 47 -51 18 -47 20 -81 6 -90 -18 -11 -11 -41 15 -65 24
-23 25 -23 63 -6 38 17 41 17 79 -3 25 -12 45 -32 53 -51 23 -55 89 -61 105
-10 4 11 11 17 17 14 8 -5 9 -1 5 10 -5 12 4 22 37 37 45 23 46 23 131 -19 6
-3 7 -1 2 3 -4 5 3 19 15 32 20 21 20 26 8 62 -18 56 3 109 56 136 32 17 39
26 39 50 0 39 -10 52 -44 60 -19 4 -33 17 -44 41 -21 43 -21 57 -1 95 15 29
14 31 -16 59 -31 29 -32 29 -65 13 -31 -15 -37 -15 -80 1 -37 15 -47 24 -52
47 -8 41 -48 60 -90 43z m68 -29 c1 -8 3 -19 4 -25 1 -5 3 -14 4 -19 1 -10 97
-51 119 -51 9 0 24 7 34 17 17 15 20 15 42 -6 24 -23 24 -23 6 -53 -18 -29
-18 -31 3 -82 24 -57 30 -64 70 -73 23 -5 27 -11 27 -39 0 -30 -3 -33 -32 -36
-29 -3 -36 -10 -60 -58 l-27 -55 20 -34 20 -34 -22 -23 -21 -23 -29 21 c-28
21 -29 21 -76 3 -62 -23 -70 -30 -78 -66 -6 -25 -11 -29 -39 -29 -27 0 -33 5
-41 33 -8 24 -21 37 -55 54 -55 27 -69 27 -99 4 -23 -17 -24 -17 -45 3 -22 21
-22 21 -4 53 18 30 18 33 2 75 -23 58 -42 78 -74 78 -24 0 -26 3 -22 34 3 28
9 35 34 42 25 7 36 20 56 66 l24 57 -21 29 -20 29 24 23 c22 21 25 21 47 6 29
-21 46 -20 101 4 45 20 57 35 57 71 0 15 7 19 35 19 24 0 35 -5 36 -15z"/>
<path d="M792 1129 c-73 -36 -112 -105 -108 -191 3 -66 32 -118 88 -158 102
-74 242 -32 303 89 26 51 16 141 -22 195 -56 81 -171 109 -261 65z m186 -19
c29 -18 48 -40 20 -24 -7 4 -10 4 -6 0 3 -4 8 -6 11 -4 9 7 39 -27 53 -60 32
-77 7 -177 -55 -222 -17 -11 -55 -26 -84 -32 -51 -11 -58 -10 -108 15 -88 43
-129 133 -100 220 15 44 49 89 62 81 5 -3 8 -1 7 5 -10 39 144 55 200 21z"/>
<path d="M837 1079 c-9 -5 -22 -7 -29 -3 -7 4 -8 3 -4 -4 4 -7 2 -12 -4 -12
-20 0 -50 -64 -50 -110 0 -110 103 -172 204 -123 65 31 88 130 46 198 -12 19
-26 35 -31 35 -6 0 -7 4 -4 10 3 5 0 7 -8 4 -8 -3 -18 -1 -22 5 -8 14 -74 14
-98 0z m135 -48 c36 -40 43 -73 29 -122 -35 -115 -213 -102 -236 18 -21 114
130 190 207 104z"/>
<path d="M1045 957 c-4 -10 -5 -21 -1 -24 10 -10 18 4 13 24 -4 17 -4 17 -12
0z"/>
<path d="M730 891 c0 -6 4 -13 10 -16 6 -3 7 1 4 9 -7 18 -14 21 -14 7z"/>
<path d="M1185 870 c-3 -5 -1 -10 4 -10 6 0 11 5 11 10 0 6 -2 10 -4 10 -3 0
-8 -4 -11 -10z"/>
<path d="M1495 710 c-92 -14 -185 -82 -227 -169 -32 -65 -32 -187 -1 -250 12
-24 19 -49 16 -55 -3 -6 -3 -8 1 -4 4 4 21 -9 38 -27 36 -42 117 -82 185 -91
59 -7 144 14 203 51 21 13 41 21 46 17 4 -4 4 -2 1 5 -4 6 -4 13 0 15 5 1 20
22 35 45 60 92 63 209 8 317 -18 36 -39 66 -46 66 -8 0 -14 4 -14 9 0 15 -120
68 -165 73 -22 2 -58 2 -80 -2z m176 -45 c169 -86 202 -324 63 -457 -138 -131
-360 -90 -450 83 -25 49 -30 156 -11 214 31 88 111 162 204 184 54 14 140 3
194 -24z"/>
<path d="M1518 649 c-10 -6 -18 -22 -18 -37 0 -19 -10 -35 -34 -54 -38 -30
-50 -72 -35 -117 8 -21 23 -35 59 -50 27 -12 53 -21 58 -21 19 0 32 -26 20
-38 -20 -20 -48 -14 -58 13 -10 26 -45 46 -67 38 -36 -14 -14 -98 32 -123 16
-8 25 -23 27 -43 6 -61 70 -62 76 0 2 20 12 35 32 46 32 19 55 75 45 109 -12
37 -34 56 -89 74 -65 21 -66 22 -59 39 10 27 56 18 75 -15 21 -36 54 -40 69
-7 14 31 -2 70 -40 98 -22 16 -31 31 -31 51 0 17 -7 31 -19 38 -23 12 -22 12
-43 -1z m41 -31 c5 -13 7 -26 5 -30 -2 -3 9 -18 26 -31 31 -27 54 -72 44 -88
-10 -18 -33 -9 -46 19 -22 46 -103 37 -96 -11 2 -17 17 -27 62 -43 90 -32 112
-90 54 -147 -18 -18 -38 -45 -44 -62 -6 -16 -17 -30 -24 -30 -7 0 -18 14 -24
30 -6 17 -26 46 -44 65 -30 33 -31 36 -15 49 17 13 17 13 0 7 -13 -4 -17 -2
-15 6 9 25 36 19 50 -9 21 -45 98 -41 98 5 0 18 -29 41 -53 42 -33 0 -75 29
-85 59 -11 31 -6 71 9 71 5 0 9 6 9 14 0 8 9 18 20 21 11 3 23 18 26 33 10 45
13 52 24 52 6 0 14 -10 19 -22z"/>
<path d="M1271 664 c0 -11 3 -14 6 -6 3 7 2 16 -1 19 -3 4 -6 -2 -5 -13z"/>
<path d="M1851 494 c0 -11 3 -14 6 -6 3 7 2 16 -1 19 -3 4 -6 -2 -5 -13z"/>
<path d="M1861 394 c0 -11 3 -14 6 -6 3 7 2 16 -1 19 -3 4 -6 -2 -5 -13z"/>
<path d="M1220 335 c0 -5 5 -17 10 -25 5 -8 10 -10 10 -5 0 6 -5 17 -10 25 -5
8 -10 11 -10 5z"/>
<path d="M1851 324 c0 -11 3 -14 6 -6 3 7 2 16 -1 19 -3 4 -6 -2 -5 -13z"/>
<path d="M161 1894 c0 -11 3 -14 6 -6 3 7 2 16 -1 19 -3 4 -6 -2 -5 -13z"/>
</g>
</svg>
